<svg width="280" height="290" xmlns="http://www.w3.org/2000/svg">
  <g>
  <title>Layer 1</title>
    <g id="svg_1">
      <metadata>Created by potrace 1.10, written by Peter Selinger 2001-2011</metadata>
      <g id="svg_2" transform="translate(0 457.204) scale(0.1 -0.1)" fill="#000000">
        <path id="svg_3" d="m855,4565.53223c-36,-13 -90,-58 -115,-95c-38,-58 -31,-76 40,-103c66,-25 189,-85 220,-108c19,-14 17,-16 -25,-27c-204,-55 -559,-231 -560,-277c0,-9 18,-13 59,-13c33,0 63,-5 66,-11c4,-6 -13,-27 -36,-47c-249,-211 -350,-333 -372,-449c-8,-41 4,-42 52,-4c64,50 111,66 111,37c0,-7 -20,-56 -44,-107c-25,-52 -55,-125 -67,-164c-12,-38 -27,-75 -33,-81c-6,-7 -40,-17 -75,-23c-35,-6 -65,-12 -66,-13c-2,-2 -5,-225 -6,-496l-4,-494l27,-14c14,-7 100,-42 190,-78c223,-87 320,-133 433,-206l96,-63l266,18l265,17l48,-47c33,-32 52,-45 62,-39c7,4 36,25 64,46l50,38l200,-16c109,-8 223,-19 252,-23l53,-8l102,65c119,77 284,153 521,242l169,64l-7,115c-4,64 -15,231 -26,371c-10,140 -22,310 -26,377c-5,100 -9,123 -23,127c-27,9 -233,37 -319,44l-83,7l40,53c60,79 83,150 89,267l5,99l43,54c58,71 84,155 84,273c0,65 -5,102 -20,140c-24,59 -114,195 -136,203c-7,3 -63,1 -124,-4l-111,-10l-52,53c-74,76 -106,88 -205,80l-81,-6l-78,50c-43,28 -109,66 -148,85c-85,42 -231,92 -245,83c-5,-3 -10,-19 -10,-36c0,-35 -4,-35 -102,-4c-157,50 -352,78 -408,58zm195,-118c75,-20 222,-91 340,-165c88,-55 183,-100 212,-100c10,0 6,10 -12,35c-25,32 -47,115 -30,115c4,0 29,-20 56,-44c73,-66 160,-91 287,-82c89,7 99,6 116,-12c12,-14 16,-32 14,-59c-3,-40 -5,-41 -66,-28c-25,6 -32,5 -30,-6c4,-17 -5,-16 -102,12c-58,17 -99,22 -180,21c-60,0 -110,4 -117,10c-18,15 -16,7 12,-54l25,-53l-31,-3c-21,-2 -61,11 -125,42c-94,46 -120,64 -65,45c34,-12 83,-9 88,6c1,6 -33,21 -77,35c-59,18 -75,26 -61,32c39,14 30,27 -26,38c-100,20 -101,20 -62,38l34,15l-66,12c-37,6 -80,20 -95,30l-29,19l35,10l35,10l-60,7c-65,7 -210,64 -185,73c56,19 95,19 165,1zm220,-263c-3,-3 -11,0 -18,7c-9,10 -8,11 6,5c10,-3 15,-9 12,-12zm30,-32c10,-11 16,-20 13,-20c-3,0 -13,9 -23,20c-10,11 -16,20 -13,20c3,0 13,-9 23,-20zm417,-61c13,-6 37,-26 55,-45c28,-29 36,-33 64,-27c18,3 45,12 59,20c35,18 60,17 34,-2c-31,-23 1,-18 83,15c52,21 114,35 199,46c146,19 157,15 194,-63c60,-128 71,-194 44,-263c-20,-49 -30,-51 -38,-6c-10,50 -31,63 -119,70c-80,6 -194,31 -212,46c-6,5 -42,16 -80,25c-39,9 -79,21 -90,27c-11,7 -80,13 -155,14c-140,3 -147,-1 -21,-14l73,-7l-46,-33c-76,-55 -73,-86 16,-187c41,-46 53,-53 68,-45c28,15 40,12 40,-9c0,-10 12,-26 26,-36c23,-15 27,-15 49,-1c31,21 35,20 35,-4c0,-11 -7,-23 -15,-27c-14,-5 -14,-8 2,-27c18,-21 18,-21 -2,-5c-11,9 -65,42 -120,74c-55,31 -112,69 -127,83c-16,14 -28,23 -28,19c0,-18 72,-83 144,-130c45,-30 122,-92 172,-140c70,-66 108,-94 167,-121c44,-20 85,-32 96,-29c35,9 24,-6 -16,-22c-24,-10 -53,-14 -78,-11l-40,6l35,-13l35,-14l-40,-25c-22,-14 -57,-31 -78,-38c-37,-12 -40,-11 -69,16c-16,16 -41,48 -54,71c-14,23 -39,52 -57,66c-106,81 -334,148 -449,132c-99,-14 -39,38 74,65c40,9 67,19 62,23c-25,15 -187,50 -256,54c-43,3 -78,10 -78,14c0,22 114,56 205,62l39,2l-65,32c-85,41 -163,63 -274,78l-90,12l49,22c75,33 132,44 239,44l98,1l-38,20c-72,36 -188,74 -268,86c-44,6 -96,14 -115,17l-35,6l55,14c81,20 249,12 322,-16c46,-18 73,-21 153,-19l96,3l-40,57c-23,31 -41,58 -41,60c0,8 130,-11 152,-23zm123,-49c4,-6 -5,-10 -19,-10c-14,0 -26,5 -26,10c0,6 9,10 19,10c11,0 23,-4 26,-10zm126,-152l39,-11l-40,-18c-106,-47 -161,-42 -100,10c40,34 47,36 101,19zm155,-38c27,-11 27,-11 7,-25c-11,-8 -38,-18 -59,-24c-22,-5 -48,-12 -59,-16c-16,-6 -14,-1 10,26c48,54 54,57 101,39zm120,-30c25,0 15,-16 -31,-49l-45,-32l0,27c0,32 28,67 48,59c7,-3 20,-5 28,-5zm84,-56c-18,-25 -34,-43 -36,-41c-3,2 -2,23 2,46c6,37 9,41 36,41l29,0l-31,-46zm-1128,-60c4,-3 -4,-29 -17,-57c-13,-29 -25,-65 -27,-82l-3,-30l85,0l85,0l3,-62l3,-63l49,-21l50,-21l-22,-39c-27,-48 -50,-50 -105,-10c-27,19 -47,47 -67,90c-20,44 -32,61 -47,61c-23,0 -25,-22 -4,-81c28,-79 60,-116 116,-136c48,-17 50,-20 45,-47c-10,-49 -22,-56 -100,-56l-71,0l-30,51c-35,59 -153,175 -208,204c-20,11 -37,27 -37,36c0,24 91,160 129,192c60,50 155,89 173,71zm894,-189c-4,-19 -9,-35 -12,-35c-3,0 -18,10 -34,22l-30,22l38,16c20,10 39,16 41,14c2,-2 0,-19 -3,-39zm111,-73c-8,-10 -17,-26 -19,-37c-3,-17 -8,-15 -43,18c-37,35 -38,38 -15,34c14,-2 36,-1 50,3c33,9 45,2 27,-18zm82,-69c-31,-53 -31,-53 -58,-38l-25,13l41,21c23,11 44,25 48,31c3,5 9,10 11,10c3,0 -4,-17 -17,-37zm-1372,-13c68,-30 203,-167 203,-205c0,-7 -52,-15 -157,-24c-87,-7 -175,-15 -197,-18l-39,-6l7,49c8,54 53,192 68,212c15,18 67,14 115,-8zm899,-350l84,0l0,-56c0,-54 51,-274 88,-384c11,-33 26,-56 35,-58c15,-3 17,11 16,130c-1,73 -4,160 -8,193l-6,60l-50,5l-50,5l-3,54l-3,54l73,-7c309,-29 572,-63 601,-78c13,-6 17,-21 17,-59c0,-48 -1,-51 -22,-46c-13,3 -47,9 -75,13l-53,7l0,-40l0,-40l75,-12c41,-7 77,-16 79,-20c3,-4 8,-31 12,-60l7,-52l-76,7c-71,6 -76,5 -72,-12c3,-11 6,-46 8,-79c3,-57 4,-60 31,-63c22,-3 27,0 24,15c-3,15 3,18 37,16c64,-4 65,-5 65,-88c0,-88 18,-82 -175,-60c-71,8 -135,15 -141,15c-7,0 -13,79 -18,248c-4,136 -10,265 -14,287l-6,40l-6,-35l-5,-35l-61,3c-34,2 -64,0 -67,-5c-9,-16 14,-338 28,-396c8,-32 15,-63 15,-68c0,-5 -36,-9 -80,-9l-80,0l0,46c0,25 -4,43 -9,39c-5,-3 -7,-21 -4,-40l6,-35l-71,0c-46,0 -74,4 -79,13c-4,6 -15,41 -23,77c-16,64 -17,65 -53,68l-37,3l0,-76l0,-75l-162,2l-163,3l-18,38c-22,48 -37,47 -37,-3l0,-40l-79,0l-79,0l-4,48c-3,30 0,51 8,57c15,13 35,311 27,406c-5,63 -4,66 18,72c13,4 71,7 129,7c164,0 185,-21 185,-176c-1,-81 -16,-126 -51,-146c-10,-6 -9,-20 3,-65c8,-32 19,-66 24,-75c10,-18 34,-24 43,-10c6,10 64,334 71,402c9,74 12,83 31,76c9,-3 54,-6 100,-6zm-579,-57c-7,-65 -27,-327 -33,-441l-6,-93l-71,3l-71,3l-27,95c-15,52 -33,115 -39,139c-18,70 -30,32 -30,-99c0,-164 2,-160 -80,-160l-68,0l-4,55c-2,33 1,56 8,59c11,4 43,267 47,386l2,75l63,5c49,4 67,2 77,-10c7,-8 31,-71 52,-139l38,-124l6,59c4,32 7,95 8,140c1,44 4,84 8,87c3,4 33,7 66,7l59,0l-5,-47zm-399,-35l-3,-53l-92,-10c-50,-5 -94,-12 -96,-15c-2,-3 -7,-22 -10,-43l-6,-39l70,7l71,7l-7,-58c-4,-33 -9,-61 -11,-63c-2,-3 -34,-7 -72,-10l-67,-6l-7,-74c-4,-41 -6,-76 -4,-79c3,-2 14,-1 25,3c14,4 21,15 21,33c0,68 7,73 79,70l66,-3l-3,-90c-2,-49 -7,-93 -10,-97c-11,-10 -316,-36 -326,-27c-5,4 -3,37 3,76c18,101 39,275 47,386c4,56 12,101 18,103c20,7 221,32 269,33l48,1l-3,-52zm-354,-20c-2,-62 -8,-68 -64,-68c-96,0 -133,-41 -152,-171c-12,-77 -3,-162 15,-156c7,2 21,51 32,108l21,104l63,3l63,3l-7,-58c-4,-32 -13,-114 -19,-183l-11,-125l-50,-7c-66,-8 -179,-10 -200,-2c-31,12 -48,65 -47,150c1,270 83,407 260,433c91,14 97,12 96,-31zm824,-665c3,-18 -2,-23 -17,-23c-20,0 -21,-6 -21,-82c0,-89 -9,-115 -34,-105c-13,5 -16,23 -16,97c0,72 -3,90 -14,90c-24,0 -30,22 -10,37c11,8 37,13 64,11c38,-3 45,-7 48,-25zm261,-10c5,-21 13,-50 17,-65c10,-42 21,-34 35,26c14,64 23,81 38,72c16,-10 14,-40 -9,-131c-22,-84 -42,-117 -60,-99c-6,6 -24,57 -41,114c-23,81 -27,105 -17,112c22,13 27,9 37,-29zm213,-24c9,-82 9,-167 -1,-173c-5,-4 -16,-3 -25,0c-13,5 -16,25 -16,113c0,59 3,111 7,115c16,16 28,-4 35,-55zm195,26c43,-48 41,-149 -4,-185c-25,-20 -97,-28 -106,-12c-3,4 -3,58 0,120l6,113l41,-6c24,-4 50,-16 63,-30zm-1466,-1c20,-25 3,-43 -34,-37c-48,7 -53,-10 -12,-38c63,-44 71,-86 22,-123c-26,-19 -30,-19 -55,-5c-15,8 -28,23 -30,33c-3,15 1,17 26,11c47,-10 49,12 3,54c-45,42 -49,55 -25,89c28,40 79,48 105,16zm125,-26c12,-72 37,-73 44,-3c4,37 9,51 23,53c15,3 17,-7 17,-112c0,-109 -1,-116 -20,-116c-17,0 -20,7 -20,40c0,22 -2,40 -4,40c-2,0 -11,3 -19,6c-12,4 -17,-5 -22,-40c-6,-36 -11,-46 -26,-46c-17,0 -19,9 -19,109c0,104 3,116 31,120c3,1 10,-23 15,-51zm266,12c40,-78 11,-190 -48,-190c-46,0 -64,32 -64,113c0,90 16,120 63,115c25,-2 36,-11 49,-38zm197,14c25,-31 26,-49 6,-87c-13,-25 -12,-32 2,-63c12,-25 14,-37 6,-45c-16,-16 -30,-4 -55,44l-23,42l-5,-45c-4,-32 -10,-46 -22,-48c-16,-3 -18,7 -18,112l0,116l44,0c36,0 48,-5 65,-26zm1071,1c0,-21 -5,-25 -31,-25c-26,0 -30,-3 -27,-22c2,-14 12,-24 28,-28c35,-8 40,-40 6,-40c-38,0 -36,-37 2,-42c19,-2 28,-9 30,-26c3,-22 1,-23 -50,-20l-53,3l-3,113l-3,112l51,0c47,0 50,-2 50,-25zm165,19c44,-17 64,-148 31,-199c-24,-36 -67,-34 -100,6c-21,24 -26,41 -26,82c0,86 40,132 95,111z"/>
        <path id="svg_4" d="m2240,4022.53223c-12,-4 -27,-15 -34,-24c-12,-14 -11,-19 4,-36c22,-24 34,-25 50,-3c11,15 17,15 40,5c30,-14 45,-9 45,17c0,40 -55,62 -105,41z"/>
        <path id="svg_5" d="m1402,2896.53223c-4,-4 -7,-35 -7,-70c0,-46 4,-63 15,-68c20,-7 32,22 36,89c4,44 2,50 -16,53c-12,2 -24,0 -28,-4z"/>
        <path id="svg_6" d="m1782,2768.53223c-11,-76 -9,-86 13,-86c18,0 20,4 14,43c-14,87 -20,96 -27,43z"/>
        <path id="svg_7" d="m1385,2584.53223c0,-40 2,-72 4,-72c2,0 11,2 19,6c12,4 12,14 2,65c-18,84 -25,84 -25,1z"/>
        <path id="svg_8" d="m2411,2509.53223c3,-10 9,-15 12,-12c3,3 0,11 -7,18c-10,9 -11,8 -5,-6z"/>
        <path id="svg_9" d="m1595,2482.53223c0,-7 3,-10 7,-7c3,4 3,10 0,14c-4,3 -7,0 -7,-7z"/>
        <path id="svg_10" d="m1905,2142.53223c0,-71 10,-86 38,-58c19,19 15,92 -6,111c-10,10 -22,17 -25,17c-4,0 -7,-31 -7,-70z"/>
        <path id="svg_11" d="m831,2196.53223c-12,-31 -6,-111 9,-124c12,-10 16,-8 25,15c13,34 13,81 0,106c-13,23 -26,24 -34,3z"/>
        <path id="svg_12" d="m1025,2183.53223c0,-15 6,-21 21,-21c25,0 22,33 -4,38c-12,2 -17,-3 -17,-17z"/>
        <path id="svg_13" d="m2289,2190.53223c-11,-18 -7,-97 6,-114c20,-23 40,2 40,48c0,60 -27,98 -46,66z"/>
      </g>
    </g>
  </g>
</svg>